<svg width="512" height="512" viewBox="0 0 512 512" fill="none" xmlns="http://www.w3.org/2000/svg">
<path d="M191.808 0.000515636C207.364 0.0364719 225.664 2.02996 243.926 3.94534C258.493 4.29719 275.104 6.09398 291.678 7.83202L312.956 10.0638C330.235 11.8758 347.662 13.6355 362.172 16.6296C378.02 19.9001 395.583 25.5761 411.268 37.9996C426.953 50.4236 435.047 65.0662 440.219 78.4452C443.637 87.2897 446.444 97.5052 449.106 108.049H452.464C481.82 108.05 505.618 128.556 505.62 153.849V276.406C505.62 286.591 501.702 296.242 494.854 304.043C500.295 312.75 504.232 322.032 506.716 331.732C510.622 345.092 512 359.824 512 374.786C512 397.152 506.5 418.706 494.906 438.685C482.576 459.932 464.013 476.848 440.634 489.159C440.146 489.415 439.652 489.667 439.155 489.91C413.281 502.563 383.782 507.42 353.591 507.42C353.39 507.42 353.19 507.412 352.989 507.411C337.735 510.616 321.842 512 305.751 512C266.258 512 229.344 502.237 201.406 479.265C190.648 482.807 179.495 484.337 168.609 484.337C163.791 484.337 159.061 484.062 154.433 483.541C143.406 487.291 131.949 488.917 120.769 488.917C88.1786 488.917 59.5766 476.862 39.6749 454.496C23.2759 436.177 13.5361 414.227 8.17066 391.043C2.6257 368.458 1.27227e-06 344.537 0 319.46C0.00027146 274.146 8.3201 232.163 32.5892 200.301L32.5788 200.296C32.6284 200.229 32.6796 200.162 32.7293 200.095C38.065 182.161 47.2215 161.491 56.7689 139.693L78.5608 89.9308C85.041 75.1353 91.4597 60.2669 98.6344 48.4029C106.462 35.4607 117.654 21.7083 136.518 11.9065C155.386 2.10444 174.797 -0.0383561 191.808 0.000515636Z" fill="white"/>
<path d="M282.791 299.678C298.099 299.678 311.493 301.143 322.974 304.074C334.456 307.006 343.387 311.218 349.765 316.714C356.144 322.21 359.332 328.623 359.332 335.951C359.332 340.713 357.418 344.743 353.591 348.04C349.764 351.337 344.025 353.717 336.372 355.183C328.293 356.648 318.723 357.383 307.666 357.383C293.208 357.383 281.089 356.101 271.308 353.537C261.528 350.972 254.085 346.759 248.982 340.897C243.454 335.035 240.265 326.973 239.415 316.714L237.499 299.678H282.791Z" fill="black"/>
<path fill-rule="evenodd" clip-rule="evenodd" d="M191.808 0.000515636C207.364 0.0364719 225.664 2.02996 243.926 3.94534C258.493 4.29719 275.104 6.09398 291.678 7.83202L312.956 10.0638C330.235 11.8758 347.662 13.6355 362.172 16.6296C378.02 19.9001 395.583 25.5761 411.268 37.9996C426.953 50.4236 435.047 65.0662 440.219 78.4452C443.637 87.2897 446.444 97.5052 449.106 108.049H452.464C481.82 108.05 505.618 128.556 505.62 153.849V276.406C505.62 286.591 501.702 296.242 494.854 304.043C500.295 312.75 504.232 322.032 506.716 331.732C510.622 345.092 512 359.824 512 374.786C512 397.152 506.5 418.706 494.906 438.685C482.576 459.932 464.013 476.848 440.634 489.159C440.146 489.415 439.652 489.667 439.155 489.91C413.281 502.563 383.782 507.42 353.591 507.42C353.39 507.42 353.19 507.412 352.989 507.411C337.735 510.616 321.842 512 305.751 512C266.258 512 229.344 502.237 201.406 479.265C190.648 482.807 179.495 484.337 168.609 484.337C163.791 484.337 159.061 484.062 154.433 483.541C143.406 487.291 131.949 488.917 120.769 488.917C88.1786 488.917 59.5766 476.862 39.6749 454.496C23.2759 436.177 13.5361 414.227 8.17066 391.043C2.6257 368.458 1.27227e-06 344.537 0 319.46C0.00027146 274.146 8.3201 232.163 32.5892 200.301L32.5788 200.296C32.6284 200.229 32.6796 200.162 32.7293 200.095C38.065 182.161 47.2215 161.491 56.7689 139.693L78.5608 89.9308C85.041 75.1353 91.4597 60.2669 98.6344 48.4029C106.462 35.4607 117.654 21.7083 136.518 11.9065C155.386 2.10444 174.797 -0.0383561 191.808 0.000515636ZM365.712 158.429V160.63C365.712 168.69 364.438 175.103 361.886 179.866C358.91 184.628 354.232 188.107 347.855 190.305C341.477 192.137 332.545 193.056 321.064 193.056H160.319C120.771 193.056 93.127 203.681 77.3928 224.932C61.2342 245.816 53.1561 277.326 53.156 319.46C53.156 341.81 55.4965 362.514 60.1742 381.566C64.4268 400.252 71.6566 415.274 81.8623 426.632C91.6426 437.623 104.611 443.118 120.769 443.118C136.928 443.118 148.413 436.158 155.216 422.236C162.02 407.946 165.422 386.328 165.422 357.383C150.113 357.383 137.568 356.285 127.787 354.087C117.581 351.522 109.925 348.224 104.822 344.194C99.7194 339.797 97.1706 334.666 97.1706 328.803C97.1708 322.209 99.7205 316.898 104.822 312.868C109.5 308.471 116.943 305.356 127.149 303.524C136.929 301.326 149.688 300.224 165.422 300.224H198.593L200.503 344.744C202.204 385.413 211.348 415.824 227.932 435.976C244.516 456.127 270.457 466.201 305.751 466.201C329.564 466.201 349.34 462.356 365.074 454.662C380.382 446.602 391.867 435.976 399.521 422.786C407.176 409.596 411.004 395.121 411.004 379.366C411.004 366.176 409.724 355.367 407.173 346.94C405.046 338.147 401.01 330.268 395.057 323.307C388.678 315.979 379.961 308.284 368.905 300.224V294.731L404.624 280.991V158.429H365.712Z" fill="black"/>
</svg>
